<?xml version="1.0" encoding="iso-8859-1"?>
<!-- Uploaded to: SVG Repo, www.svgrepo.com, Generator: SVG Repo Mixer Tools -->
<svg height="800px" width="800px" version="1.1" id="Layer_1" xmlns="http://www.w3.org/2000/svg" xmlns:xlink="http://www.w3.org/1999/xlink" 
	 viewBox="0 0 297 297" xml:space="preserve">
<g>
	<g>
		<g>
			<g>
				<circle style="fill:#5E4534;" cx="148.5" cy="148.5" r="148.5"/>
			</g>
		</g>
	</g>
	<path style="fill:#3F2E22;" d="M212.006,111.593L93.415,228.978l67.501,67.501c61.906-5.125,113.03-48.218,130.038-105.939
		L212.006,111.593z"/>
	<g>
		<path style="fill:#F9B65F;" d="M166.414,66h-65.383c-5.603,0-10.188,4.584-10.188,10.187v146.024
			c0,5.603,4.585,10.187,10.188,10.187h104.891c5.603,0,10.188-4.584,10.188-10.187V115.696L166.414,66z"/>
	</g>
	<g>
		<path style="fill:#E8D579;" d="M195.755,207.146c0,3.814-3.121,6.935-6.935,6.935h-69.117c-3.814,0-6.935-3.121-6.935-6.935
			V138.03c0-3.814,3.121-6.935,6.935-6.935h69.117c3.814,0,6.935,3.121,6.935,6.935V207.146z"/>
		<path style="fill:#B85627;" d="M188.82,218.331h-69.116c-6.167,0-11.185-5.018-11.185-11.185V138.03
			c0-6.167,5.018-11.185,11.185-11.185h69.116c6.168,0,11.186,5.018,11.186,11.185v69.116
			C200.006,213.313,194.988,218.331,188.82,218.331z M119.704,135.346c-1.455,0-2.685,1.229-2.685,2.685v69.116
			c0,1.455,1.229,2.685,2.685,2.685h69.116c1.456,0,2.686-1.229,2.686-2.685V138.03c0-1.455-1.229-2.685-2.686-2.685
			L119.704,135.346L119.704,135.346z"/>
	</g>
	<g>
		<path style="fill:#B85627;" d="M195.722,166.089h-45.505c-6.167,0-11.185-5.018-11.185-11.185v-23.809
			c0-2.348,1.902-4.25,4.25-4.25s4.25,1.902,4.25,4.25v23.809c0,1.455,1.229,2.685,2.685,2.685h45.505c2.348,0,4.25,1.902,4.25,4.25
			S198.069,166.089,195.722,166.089z"/>
	</g>
	<g>
		<path style="fill:#B85627;" d="M176.022,218.28c-2.348,0-4.25-1.902-4.25-4.25v-52.154c0-2.348,1.902-4.25,4.25-4.25
			s4.25,1.902,4.25,4.25v52.154C180.272,216.378,178.37,218.28,176.022,218.28z"/>
	</g>
	<g>
		<path style="fill:#B85627;" d="M176.016,196.603h-47.117c-2.348,0-4.25-1.902-4.25-4.25s1.902-4.25,4.25-4.25h47.117
			c2.348,0,4.25,1.902,4.25,4.25S178.363,196.603,176.016,196.603z"/>
	</g>
	<g>
		<path style="fill:#B85627;" d="M128.635,218.187c-2.348,0-4.25-1.902-4.25-4.25V131.15c0-2.348,1.902-4.25,4.25-4.25
			c2.348,0,4.25,1.902,4.25,4.25v82.787C132.885,216.284,130.982,218.187,128.635,218.187z"/>
	</g>
	<g>
		<path style="fill:#B85627;" d="M153.831,218.31c-2.348,0-4.25-1.902-4.25-4.25v-21.477c0-2.348,1.902-4.25,4.25-4.25
			s4.25,1.902,4.25,4.25v21.477C158.081,216.407,156.179,218.31,153.831,218.31z"/>
	</g>
	<g>
		<path style="fill:#B85627;" d="M128.549,162.811h-15.748c-2.348,0-4.25-1.902-4.25-4.25s1.902-4.25,4.25-4.25h15.748
			c2.348,0,4.25,1.902,4.25,4.25S130.896,162.811,128.549,162.811z"/>
	</g>
</g>
</svg>